<svg width="24" height="25" viewBox="0 0 24 25" fill="none" xmlns="http://www.w3.org/2000/svg">
<path d="M21 5.75C20.586 5.75 20.25 6.086 20.25 6.5V9.99805L15.608 6.33203C14.793 5.68903 13.709 5.57097 12.774 6.02197C11.834 6.47797 11.25 7.41289 11.25 8.46289V9.99707L6.60803 6.33105C5.79303 5.68805 4.70905 5.57 3.77405 6.021C2.83405 6.477 2.25 7.41191 2.25 8.46191V16.5349C2.25 17.5849 2.83405 18.5201 3.77405 18.9761C4.15005 19.1581 4.55 19.2471 4.948 19.2471C5.538 19.2471 6.12103 19.05 6.60803 18.665L11.25 14.999V16.5339C11.25 17.5839 11.834 18.5191 12.774 18.9751C13.15 19.1571 13.55 19.2461 13.948 19.2461C14.538 19.2461 15.121 19.0491 15.608 18.6641L20.25 14.998V18.5C20.25 18.914 20.586 19.25 21 19.25C21.414 19.25 21.75 18.914 21.75 18.5V6.5C21.75 6.086 21.414 5.75 21 5.75ZM10.79 13.4541L5.67896 17.491C5.31396 17.78 4.84795 17.8309 4.42896 17.6289C4.00396 17.4229 3.75 17.0151 3.75 16.5381V8.46509C3.75 7.98709 4.00396 7.58002 4.42896 7.37402C4.59795 7.29202 4.77495 7.25195 4.94995 7.25195C5.20795 7.25195 5.46196 7.33999 5.67896 7.51099L10.79 11.5471C11.082 11.7781 11.25 12.126 11.25 12.501C11.25 12.876 11.082 13.2231 10.79 13.4541ZM19.79 13.4541L14.679 17.491C14.314 17.78 13.848 17.8309 13.429 17.6289C13.004 17.4229 12.75 17.0151 12.75 16.5381V8.46509C12.75 7.98709 13.004 7.58002 13.429 7.37402C13.598 7.29202 13.775 7.25195 13.95 7.25195C14.208 7.25195 14.462 7.33999 14.679 7.51099L19.79 11.5471C20.082 11.7781 20.25 12.126 20.25 12.501C20.25 12.876 20.082 13.2231 19.79 13.4541Z" fill="#3A0299"/>
</svg>
